<svg xmlns="http://www.w3.org/2000/svg" width="4.563" height="7.813" viewBox="0 0 4.563 7.813">
  <defs>
    <style>
      .cls-1 {
        fill: #fff;
        fill-rule: evenodd;
      }
    </style>
  </defs>
  <path id="nav-ul-marker" class="cls-1" d="M34.148,83.5a0.269,0.269,0,0,0-.078-0.18L30.43,79.68a0.246,0.246,0,0,0-.359,0l-0.391.391a0.246,0.246,0,0,0,0,.359l3.07,3.07-3.07,3.07a0.269,0.269,0,0,0-.078.18,0.254,0.254,0,0,0,.078.18L30.07,87.32a0.246,0.246,0,0,0,.359,0L34.07,83.68A0.269,0.269,0,0,0,34.148,83.5Z" transform="translate(-29.594 -79.594)"/>
</svg>
